HIERARCHY
ROOT Hips
{
  OFFSET -125.086 92.215 135.881
  CHANNELS 6 Xposition Yposition Zposition Zrotation Xrotation Yrotation
  JOINT LeftUpLeg
  {
    OFFSET 8.64259 1.95398 -2.38835
    CHANNELS 3 Zrotation Xrotation Yrotation
    JOINT LeftLeg
    {
      OFFSET 43.7702 0 0
      CHANNELS 3 Zrotation Xrotation Yrotation
      JOINT LeftFoot
      {
        OFFSET 40.6238 0 0
        CHANNELS 3 Zrotation Xrotation Yrotation
        JOINT LeftToeBase
        {
          OFFSET 12.7242 0 0
          CHANNELS 3 Zrotation Xrotation Yrotation
          End Site
          {
            OFFSET 0 0 0
          }
        }
      }
    }
  }
  JOINT RightUpLeg
  {
    OFFSET -8.2249 1.95398 -2.59336
    CHANNELS 3 Zrotation Xrotation Yrotation
    JOINT RightLeg
    {
      OFFSET 43.5653 0 0
      CHANNELS 3 Zrotation Xrotation Yrotation
      JOINT RightFoot
      {
        OFFSET 40.6238 0 0
        CHANNELS 3 Zrotation Xrotation Yrotation
        JOINT RightToeBase
        {
          OFFSET 12.7242 0 0
          CHANNELS 3 Zrotation Xrotation Yrotation
          End Site
          {
            OFFSET 0 0 0
          }
        }
      }
    }
  }
  JOINT Spine
  {
    OFFSET 0.165834 0.87714 6.61349
    CHANNELS 3 Zrotation Xrotation Yrotation
    JOINT Spine1
    {
      OFFSET 7.38963 1.71661e-005 0
      CHANNELS 3 Zrotation Xrotation Yrotation
      JOINT Spine2
      {
        OFFSET 11.9445 1.14441e-005 0
        CHANNELS 3 Zrotation Xrotation Yrotation
        JOINT Spine3
        {
          OFFSET 14.7254 4.19617e-005 0
          CHANNELS 3 Zrotation Xrotation Yrotation
          JOINT Spine4
          {
            OFFSET 10.9679 0 0
            CHANNELS 3 Zrotation Xrotation Yrotation
            JOINT RightShoulder
            {
              OFFSET 2.46616 -1.6653 3.69651
              CHANNELS 3 Zrotation Xrotation Yrotation
              JOINT RightArm
              {
                OFFSET 13.0012 0 0
                CHANNELS 3 Zrotation Xrotation Yrotation
                JOINT RightForeArm
                {
                  OFFSET 28.7848 1.52588e-005 0
                  CHANNELS 3 Zrotation Xrotation Yrotation
                  JOINT RightHand
                  {
                    OFFSET 26.5688 1.52588e-005 0
                    CHANNELS 3 Zrotation Xrotation Yrotation
                    End Site
                    {
                      OFFSET 0 0 0
                    }
                  }
                }
              }
            }
            JOINT LeftShoulder
            {
              OFFSET 2.38034 -1.29275 -3.7523
              CHANNELS 3 Zrotation Xrotation Yrotation
              JOINT LeftArm
              {
                OFFSET 16.3182 6.10352e-005 0
                CHANNELS 3 Zrotation Xrotation Yrotation
                JOINT LeftForeArm
                {
                  OFFSET 27.0901 0 0
                  CHANNELS 3 Zrotation Xrotation Yrotation
                  JOINT LeftHand
                  {
                    OFFSET 24.5451 1.52588e-005 0
                    CHANNELS 3 Zrotation Xrotation Yrotation
                    End Site
                    {
                      OFFSET 0 0 0
                    }
                  }
                }
              }
            }
            JOINT Neck
            {
              OFFSET 5.0226 -0.0266342 0
              CHANNELS 3 Zrotation Xrotation Yrotation
              JOINT Head
              {
                OFFSET 6.69363 2.86102e-005 0
                CHANNELS 3 Zrotation Xrotation Yrotation
                End Site
                {
                  OFFSET 0 0 0
                }
              }
            }
          }
        }
      }
    }
  }
}
MOTION
Frames:	12
Frame Time:	0.0416667
-74.1759 27.5417 53.3604 -5.35298 1.05735 -86.4623 -168.368 25.142 102.431 -44.5656 -10.0304 0.729928 56.2078 0.663792 -10.2668 72.4516 -1.64523 7.7881 172.449 41.6851 62.4282 -66.3315 -2.16042 -2.11455 73.427 1.32892 37.3927 90.8154 -4.4171 11.9685 -0.458234 7.63631 -91.0426 11.5857 -1.39967 -1.93302 -0.0858572 -1.48336 -1.86958 -22.6117 -0.754181 -2.26417 -2.59907 -0.754191 -2.26414 108.7 -51.4039 -72.1599 13.2254 -5.2017 0.276258 -45.2732 14.5142 -108.79 -61.1072 -7.33661 7.41398 -74.838 -4.22474 106.42 -52.8734 -44.9691 -105.257 29.9637 -1.84519 -77.3433 2.08125 -0.0088063 -2.26847 45.1247 13.5827 43.568 -15.6105 -6.24405 -50.7395 
-71.8674 26.7471 54.2292 -4.1703 6.46427 -87.1762 -169.334 14.5361 101.783 -26.1365 -9.94695 1.52322 62.126 3.69354 -13.1367 91.4534 2.99113 18.9571 176.198 47.0751 60.7065 -69.68 -0.556331 -2.77802 73.4675 1.78858 38.8152 95.0174 -4.11909 12.9898 -0.23772 7.42445 -91.2311 12.0081 -1.05322 -2.33911 0.335545 -1.15511 -2.29053 -22.1832 -0.301793 -2.54735 -2.17054 -0.30178 -2.54736 107.368 -50.2905 -74.0854 8.22932 -6.18781 -4.88102 -41.6834 16.0049 -111.474 -71.3342 -5.89611 3.13693 -76.6351 -2.16182 101.388 -47.2223 -59.8823 -94.8559 28.223 -1.34534 -73.4686 2.99816 -0.021527 -2.91562 82.3753 16.6556 24.3072 -44.4477 5.0461 -34.0631 
-69.6035 23.5732 56.0669 -1.24047 14.1184 -89.3665 -170.918 5.40925 99.3345 -12.4287 -15.3949 2.73742 70.8135 8.2812 -16.2273 92.0539 2.8669 18.2446 179.598 53.387 57.6465 -73.1425 -1.50577 -2.97937 74.3057 1.80673 39.1293 90.318 -5.62066 9.40605 0.112714 6.90641 -91.3487 13.0483 -0.424647 -2.64646 1.37479 -0.54067 -2.62526 -21.1389 0.390052 -2.6518 -1.1262 0.390072 -2.65179 105.305 -49.1979 -77.2188 7.75824 -5.01231 -5.44387 -40.5314 19.0948 -115.289 -68.395 -5.57849 3.16704 -77.0246 1.7164 99.9904 -31.5838 -68.6899 -72.7928 25.7541 -0.864076 -69.2052 3.63572 -0.0478756 -3.53665 111.501 8.89454 7.14807 -69.7746 9.8041 -17.8313 
-67.8215 21.3971 58.92 -4.57805 16.817 -91.7583 -173.337 -0.0128583 96.5123 -14.5075 -11.9351 3.27941 75.8797 9.655 -19.0417 92.0656 0.441947 13.0242 -179.446 54.9876 50.6838 -77.4905 -3.36795 -3.18247 75.3257 1.23844 37.5503 87.2701 -4.2874 11.797 0.327541 7.08964 -91.4497 12.6849 -0.0415822 -2.89263 1.01076 -0.168808 -2.88803 -21.5001 0.82937 -2.77159 -1.48743 0.829363 -2.77161 104.196 -46.8043 -78.8641 4.64396 -2.11632 -9.12817 -40.1449 19.2516 -116.256 -66.2638 -6.88387 5.55639 -76.6549 -5.85447 100.451 -22.1815 -65.5636 -69.1997 25.9169 -0.273054 -63.1288 6.2285 -0.172358 -5.32123 86.8635 6.43849 2.42417 -51.486 8.06853 -11.2054 
-67.3385 18.6842 61.2699 -6.33608 22.7094 -95.4492 -175.547 -3.93218 91.811 -17.7309 -10.224 3.07842 77.521 8.46163 -22.1245 87.7817 -1.44536 8.94132 -179.178 58.5573 46.4829 -85.6918 -6.31414 -2.98905 74.2823 0.86256 35.576 84.6232 -5.38999 8.7275 0.448945 6.99829 -91.6142 12.8678 0.118219 -3.24154 1.19281 -0.0244871 -3.2436 -21.3127 1.08651 -3.0565 -1.30003 1.08651 -3.0565 102.777 -39.952 -81.0689 0.650268 -6.65077 -16.3004 -39.5059 18.2171 -111.864 -66.5055 -6.29439 4.5684 -76.5881 -3.66232 100.833 -22.2102 -62.3079 -58.7298 30.0262 3.61674 -65.9588 11.0998 0.130777 -2.49639 20.7519 7.27025 -4.78832 5.4173 8.84159 4.40446 
-67.377 18.1427 61.9191 -7.4316 23.3765 -98.0409 -175.709 -5.70286 90.2883 -18.2892 -10.5041 2.54429 77.6721 6.70023 -27.9002 85.4525 -2.33851 6.66945 172.237 56.2238 50.2843 -91.4077 -9.93537 -2.21685 71.0208 0.58122 32.3213 86.5879 -3.09028 14.4698 0.868816 7.08429 -91.6166 12.7086 0.953337 -3.34364 1.03366 0.805347 -3.3823 -21.477 1.91379 -2.90316 -1.46429 1.91378 -2.90316 103.769 -37.3209 -79.197 0.538566 -6.28689 -16.7427 -36.5943 17.621 -114.334 -63.7913 -6.69895 5.75751 -77.5796 -3.33995 97.62 -37.621 -63.3263 -54.9817 23.5994 0.265325 -88.5545 15.8489 0.151474 -2.8694 1.94498 7.19921 2.32398 22.0883 7.581 4.26168 
-66.9085 17.8464 60.7085 -7.31438 20.0627 -100.62 -176.8 -3.75602 88.9837 -22.8121 -18.398 2.23994 76.8619 5.70331 -30.1073 85.2453 -2.68037 5.82496 161.827 46.6912 53.1153 -88.3671 -11.3728 -0.620733 72.4713 0.606503 32.8537 82.7849 -3.58365 12.8727 1.01462 7.14677 -91.343 12.5847 1.37554 -2.84227 0.91109 1.24916 -2.89999 -21.6117 2.16595 -2.29788 -1.59905 2.16595 -2.29787 104.905 -37.6802 -77.1225 1.36459 -6.03159 -12.8169 -35.8668 20.3317 -118.268 -64.8367 -6.63965 5.4785 -76.7593 -13.8503 100.091 -41.9426 -62.089 -34.7747 22.9197 -1.21556 -126.789 14.8352 -0.502523 -7.11487 8.69576 6.5698 16.2582 18.2 1.49521 -6.28709 
-65.5669 18.2857 58.6938 -8.6786 14.799 -102.372 -175.943 -0.110908 88.405 -29.0844 -22.0957 1.67853 74.82 3.85948 -32.8619 86.5815 -0.183301 11.9482 156.483 33.5317 52.9036 -81.079 -9.00672 0.660894 72.6825 0.950287 33.9043 80.0973 -3.54629 12.6352 0.500921 7.20919 -90.4182 12.4625 0.796284 -0.926586 0.791455 0.754723 -0.960754 -21.7442 1.03795 -0.644461 -1.73159 1.03795 -0.644468 104.265 -41.8717 -78.4773 2.32806 -4.78017 -7.70831 -38.6824 21.7782 -119.196 -65.1956 -7.5655 6.79634 -73.9535 -30.9197 104.335 -42.6654 -43.7668 -22.2145 21.3676 -10.1692 -136.813 17.6791 -0.774215 -8.24175 -0.929995 2.63871 27.2981 28.8621 -6.48736 -17.6 
-63.209 18.8699 55.7253 -9.3157 6.02938 -104.502 -175.419 4.61914 90.62 -35.5945 -21.7151 1.84727 75.0597 3.68862 -33.0101 87.1509 0.512512 13.6316 156.011 20.4497 54.2487 -73.56 -7.14003 0.476049 73.0065 0.930505 33.8323 75.4871 -2.8548 14.0855 -0.112411 7.08598 -89.2799 12.6989 0.120779 1.42476 1.02721 0.18332 1.41807 -21.5019 -0.312977 1.39523 -1.48923 -0.312985 1.39522 107.645 -43.1342 -72.8292 4.49226 -4.54334 -3.28648 -30.5315 17.9391 -123.401 -70.681 -5.5356 2.76155 -73.1058 -38.0616 105.202 -47.0218 -31.1157 -33.1098 29.3506 -19.2007 -135.706 17.4881 -0.635012 -7.47919 8.64224 2.1571 31.7426 19.5567 -11.0768 -29.1166 
-60.9538 20.0419 53.5119 -8.72977 0.181617 -102.424 -174.034 12.4813 95.1329 -42.5932 -18.1556 2.45322 74.505 2.79104 -33.1481 90.8188 0.256713 12.745 159.389 12.1901 60.2939 -64.0367 -3.7734 -0.477665 71.6919 1.02672 34.955 72.3608 -3.05247 13.0852 -0.343743 7.10486 -89.0043 12.661 -0.207484 2.01368 0.988445 -0.118674 2.02085 -21.5355 -0.80298 1.85832 -1.52286 -0.802972 1.85835 109.379 -44.5339 -70.1044 7.76198 0.760796 -3.82032 -24.6957 12.3132 -125.58 -67.9897 -4.64832 1.84386 -75.1292 -29.4688 102.211 -43.7226 -23.7737 -44.4683 27.0448 -14.8368 -131.097 13.2095 -0.0812446 -4.17154 9.65452 1.37199 51.7481 12.3539 -18.4308 -49.2721 
-58.3977 22.2226 52.2312 -5.8199 -7.7827 -101.864 -174.741 23.9428 94.3488 -49.1269 -17.2239 2.0895 74.2418 3.35618 -31.4149 94.9289 2.23506 16.3145 162.115 12.801 62.9465 -50.9007 2.48912 -0.732587 69.989 0.703047 33.8121 73.1803 -1.67621 17.2578 -0.13212 7.21091 -89.0184 12.4462 0.204212 1.9373 0.773845 0.289278 1.92643 -21.7499 -0.387335 1.90915 -1.73728 -0.387343 1.90916 109.576 -44.2939 -69.7141 10.5689 20.9493 -3.86364 -21.4672 6.83673 -133.901 -67.0112 -5.33725 3.13793 -76.0254 -27.359 100.57 -46.6191 -15.0515 -62.5505 34.9134 -15.6892 -123.479 10.6457 0.20677 -1.79528 15.0338 -0.196912 68.3258 -0.255662 -22.4039 -61.3125 
-54.9434 24.4146 50.7051 -4.86103 -16.3938 -102.351 -174.803 34.1815 92.4541 -57.5787 -13.2327 1.41546 74.4105 4.74631 -28.0097 93.1322 6.02133 24.5973 163.187 12.4583 62.1787 -36.2923 5.05081 -1.0841 63.3563 0.316315 23.8749 76.2007 -1.41264 18.8368 -0.244541 7.32583 -88.9437 12.2172 0.0142545 2.10654 0.544582 0.106947 2.10385 -21.9779 -0.619378 2.01349 -1.96519 -0.619383 2.01351 110.37 -48.7619 -69.2075 24.9851 43.5461 -24.0189 -25.6687 10.0657 -141.454 -51.4111 -5.91373 7.29318 -76.5605 -27.0557 99.4707 -46.2065 -12.785 -75.583 39.1311 -13.4067 -116.642 7.71423 0.1314 -1.79429 15.454 -2.49429 77.8743 -7.0349 -24.0625 -65.5839 
